<svg viewBox="0 0 100 100" xmlns="http://www.w3.org/2000/svg" fill="currentColor">
  <path d="M77.5 52.8c.1-12.1 10.2-17.8 10.6-18-5.8-8.5-14.8-9.6-17.9-9.8-7.6-.8-14.8 4.5-18.7 4.5-3.9 0-9.8-4.4-16.1-4.3-8.3.1-16 4.8-20.2 12.3-8.6 14.8-2.2 36.7 6.2 48.7 4.1 6 9 12.6 15.4 12.3 6.2-.2 8.5-4 15.9-4s9.5 4 15.9 3.9c6.6-.1 10.8-6.1 14.8-12.2 4.7-7 6.7-13.9 6.8-14.3-.1 0-13.1-5-13.2-19.1zM65.1 14.5c3.4-4.1 5.7-9.7 5.1-15.5-5.1.2-11.2 3.4-14.8 7.5-3.2 3.6-5.9 9.3-5.2 14.7 5.5.4 11.5-2.9 15-6.7z"/>
</svg>
